<?xml version="1.0" encoding="utf-8"?>
<!-- Generator: Adobe Illustrator 24.0.1, SVG Export Plug-In . SVG Version: 6.00 Build 0)  -->
<svg version="1.1" id="Layer_1" xmlns="http://www.w3.org/2000/svg" xmlns:xlink="http://www.w3.org/1999/xlink" x="0px" y="0px"
	 viewBox="0 0 125 38" style="enable-background:new 0 0 125 38;" xml:space="preserve">
<style type="text/css">
	.st0{fill:#0B36A8;}
	.st1{fill:#FFFFFF;}
</style>
<title>logo</title>
<ellipse class="st0" cx="19" cy="19" rx="19" ry="19"/>
<g>
	<path class="st1" d="M21.2,26.1l-6.6-3.2c-1.7,2.3-2.6,3.8-2.8,4.6c-0.1,0.5-0.5,1-0.9,1.3s-0.8,0.5-1,0.5c-0.6,0-0.9-0.2-0.9-0.7
		c0-0.3,0.4-1,1.1-2.2s1.7-2.7,2.9-4.3c-0.7-0.3-1.1-0.5-1.3-0.6s-0.2-0.3-0.2-0.5s0.2-0.7,0.6-1.2c0.3-0.5,0.6-0.8,0.7-1
		s0.4-0.3,0.6-0.4s0.5-0.2,0.7-0.2s0.9-0.1,2.1-0.3c0.9-1.3,1.9-2.6,3-4.1s1.9-2.6,2.5-3.4c-1.8,0.2-3.1,0.5-3.8,0.6
		c-0.8,0.2-1.4,0.3-1.9,0.4s-0.9,0.2-1.1,0.3s-0.3,0.2-0.3,0.3c0,0.1,0.1,0.2,0.4,0.3s0.6,0.1,1,0.1s0.7,0,0.9,0s0.3,0.1,0.3,0.2
		c0,0.1-0.1,0.2-0.4,0.2s-1.1,0.1-2.4,0.1c-0.8,0-1.4,0-1.9,0.1s-0.9,0-1.1,0c-0.3,0-0.5-0.1-0.6-0.2s-0.2-0.4-0.2-0.7
		c0-0.2,0.1-0.6,0.3-1.1s0.5-1.1,0.9-1.6s0.9-1,1.4-1.3c0.6-0.4,1.5-0.7,2.8-1.1s2.7-0.7,4.2-0.9s3.1-0.3,4.6-0.3
		c0.9,0,1.8,0.1,2.7,0.2s1.7,0.2,2.4,0.4s1.3,0.3,1.7,0.5c1.1,0.4,1.9,0.9,2.5,1.6s0.9,1.5,0.9,2.4c0,0.8-0.1,1.6-0.4,2.4
		s-0.7,1.5-1.3,2.2s-1.3,1.2-2.1,1.6c-0.7,0.4-1.7,0.7-3.1,1.1s-3.1,0.7-5,1s-4.1,0.5-6.6,0.6c1.8,0.6,3.5,1.3,5.1,1.9
		s2.9,1.2,4,1.7s1.9,0.9,2.5,1.2c0.9,0.4,1.4,0.8,1.7,1s0.4,0.5,0.5,0.8S30,27,30,27.7c0,0.8,0,1.4-0.1,1.8s-0.3,0.6-0.6,0.6
		c-0.1,0-0.4-0.1-0.8-0.3s-1.1-0.6-1.9-1s-1.5-0.8-2.2-1.2S22.6,26.8,21.2,26.1z M22.8,10.2c0,0.1,0,0.2,0,0.2s0,0.2,0,0.3
		c0,0.3-0.1,0.7-0.3,1.1s-0.5,0.9-0.8,1.3s-0.8,1.1-1.4,1.9s-1.2,1.6-1.8,2.3c2.5-0.5,4.6-0.9,6.3-1.4c1.7-0.4,3.2-0.9,4.3-1.3
		s2-0.9,2.5-1.4s0.9-1,0.9-1.5c0-0.6-0.6-1-1.8-1.4S28.1,10,26.3,10c-0.4,0-0.7,0-1.1,0s-0.9,0.1-1.4,0.1S22.9,10.2,22.8,10.2z"/>
</g>
<g>
	<path class="st1" d="M65,29.3l-6.6-3.2c-1.7,2.3-2.6,3.8-2.8,4.6c-0.1,0.5-0.5,1-0.9,1.3s-0.8,0.5-1,0.5c-0.6,0-0.9-0.2-0.9-0.7
		c0-0.3,0.4-1,1.1-2.2s1.7-2.7,2.9-4.3c-0.7-0.3-1.1-0.5-1.3-0.6s-0.2-0.3-0.2-0.5s0.2-0.7,0.6-1.2c0.3-0.5,0.6-0.8,0.7-1
		s0.4-0.3,0.6-0.4s0.5-0.2,0.7-0.2s0.9-0.1,2.1-0.3c0.9-1.3,1.9-2.6,3-4.1s1.9-2.6,2.5-3.4c-1.8,0.2-3.1,0.5-3.8,0.6
		c-0.8,0.2-1.4,0.3-1.9,0.4s-0.9,0.2-1.1,0.3s-0.3,0.2-0.3,0.3c0,0.1,0.1,0.2,0.4,0.3s0.6,0.1,1,0.1s0.7,0,0.9,0s0.3,0.1,0.3,0.2
		c0,0.1-0.1,0.2-0.4,0.2c-0.3,0-1.1,0.1-2.4,0.1c-0.8,0-1.4,0-1.9,0.1s-0.9,0-1.1,0c-0.3,0-0.5-0.1-0.6-0.2
		c-0.2-0.2-0.2-0.4-0.2-0.7c0-0.2,0.1-0.6,0.3-1.1s0.5-1.1,0.9-1.6s0.9-1,1.4-1.3c0.6-0.4,1.5-0.7,2.8-1.1s2.7-0.7,4.2-0.9
		s3.1-0.3,4.6-0.3c0.9,0,1.8,0.1,2.7,0.2s1.7,0.2,2.4,0.4s1.3,0.3,1.7,0.5c1.1,0.4,1.9,0.9,2.5,1.6s0.9,1.5,0.9,2.4
		c0,0.8-0.1,1.6-0.4,2.4c-0.3,0.8-0.7,1.5-1.3,2.2s-1.3,1.2-2.1,1.6c-0.7,0.4-1.7,0.7-3.1,1.1s-3.1,0.7-5,1s-4.1,0.5-6.6,0.6
		c1.8,0.6,3.5,1.3,5.1,1.9s2.9,1.2,4,1.7s1.9,0.9,2.5,1.2c0.9,0.4,1.4,0.8,1.7,1s0.4,0.5,0.5,0.8s0.1,0.8,0.1,1.6
		c0,0.8,0,1.4-0.1,1.8c-0.1,0.4-0.3,0.6-0.6,0.6c-0.1,0-0.4-0.1-0.8-0.3s-1.1-0.6-1.9-1c-0.8-0.4-1.5-0.8-2.2-1.2S66.4,30,65,29.3z
		 M66.6,13.4c0,0.1,0,0.2,0,0.2s0,0.2,0,0.3c0,0.3-0.1,0.7-0.3,1.1s-0.5,0.9-0.8,1.3c-0.3,0.5-0.8,1.1-1.4,1.9s-1.2,1.6-1.8,2.3
		c2.5-0.5,4.6-0.9,6.3-1.4s3.2-0.9,4.3-1.3s2-0.9,2.5-1.4s0.9-1,0.9-1.5c0-0.6-0.6-1-1.8-1.4s-2.6-0.5-4.4-0.5c-0.4,0-0.7,0-1.1,0
		s-0.9,0.1-1.4,0.1S66.7,13.4,66.6,13.4z"/>
	<path class="st1" d="M78.1,26v0.4c0,0.7,0.2,1.2,0.5,1.6s0.8,0.6,1.3,0.6c0.6,0,1.2-0.1,1.8-0.4s1.2-0.6,1.8-1.1s1.4-1,2.2-1.8v1.1
		c-1.3,1.6-2.6,2.8-3.7,3.7s-2.3,1.3-3.5,1.3c-1,0-1.9-0.4-2.5-1.2s-0.9-1.9-0.9-3.3c0-1.2,0.3-2.3,0.9-3.3s1.5-2.1,2.8-3.2
		c0.9-0.8,1.8-1.3,2.7-1.7s1.7-0.6,2.4-0.6c0.6,0,1,0.1,1.3,0.4s0.5,0.6,0.5,1.1c0,0.7-0.3,1.5-0.8,2.2s-1.4,1.5-2.5,2.2
		S79.7,25.4,78.1,26z M78.3,24.9c1.1-0.4,2-0.9,2.7-1.5s1.3-1.2,1.7-1.7s0.5-1,0.5-1.2c0-0.3-0.1-0.4-0.4-0.4c-0.2,0-0.6,0.1-1,0.4
		s-1,0.6-1.4,1.1S79.4,22.4,79,23S78.4,24.2,78.3,24.9z"/>
	<path class="st1" d="M97.6,22.2c-2.1,2.3-3.1,3.9-3.1,4.8c0,0.5,0.2,0.8,0.6,0.8c0.3,0,0.8-0.2,1.3-0.5s1.4-1,2.6-1.9v1.2
		c-1.7,1.6-2.9,2.8-3.8,3.6s-1.6,1.1-2.2,1.1c-1,0-1.4-0.6-1.4-1.9c0-0.4,0.1-0.7,0.2-1.1s0.3-0.7,0.5-1.1s0.5-1,0.9-1.7
		s0.9-1.6,1.5-2.5c-0.7,0.3-1.5,1-2.5,2c-0.7,0.6-1.2,1.2-1.7,1.8s-0.9,1.2-1.5,1.9s-0.9,1.2-1.1,1.4s-0.5,0.4-0.7,0.4
		c-0.4,0-0.7-0.4-1-1.2s-0.5-1.7-0.5-2.7c0-0.6,0.1-1.1,0.2-1.5s0.4-0.9,0.9-1.5c0.8-1.2,1.5-2.2,2.1-2.7s1.1-0.9,1.7-0.9
		c0.4,0,0.7,0.1,0.9,0.2c0.2,0.1,0.3,0.3,0.3,0.6c0,0.1,0,0.2-0.1,0.4s-0.1,0.2-0.2,0.4s-0.3,0.3-0.6,0.6C89,24,88,25.3,88,25.9
		c0,0.3,0.1,0.5,0.3,0.5c0.1,0,0.4-0.2,0.8-0.7s0.9-1,1.6-1.8s1.4-1.5,2.3-2.3s1.9-1.6,3-2.3c0.6-0.4,1.1-0.7,1.5-0.7
		c0.2,0,0.4,0.3,0.6,0.8c0.2,0.5,0.3,1,0.3,1.6C98.4,21.3,98.1,21.7,97.6,22.2z"/>
	<path class="st1" d="M101.7,26v0.4c0,0.7,0.2,1.2,0.5,1.6s0.8,0.6,1.3,0.6c0.6,0,1.2-0.1,1.8-0.4s1.2-0.6,1.8-1.1s1.4-1,2.2-1.8
		v1.1c-1.3,1.6-2.6,2.8-3.7,3.7s-2.3,1.3-3.5,1.3c-1,0-1.9-0.4-2.5-1.2s-0.9-1.9-0.9-3.3c0-1.2,0.3-2.3,0.9-3.3s1.5-2.1,2.8-3.2
		c0.9-0.8,1.8-1.3,2.7-1.7s1.7-0.6,2.4-0.6c0.6,0,1,0.1,1.3,0.4s0.5,0.6,0.5,1.1c0,0.7-0.3,1.5-0.8,2.2s-1.4,1.5-2.5,2.2
		S103.4,25.4,101.7,26z M101.9,24.9c1.1-0.4,2-0.9,2.7-1.5s1.3-1.2,1.7-1.7s0.5-1,0.5-1.2c0-0.3-0.1-0.4-0.4-0.4
		c-0.2,0-0.6,0.1-1,0.4s-1,0.6-1.4,1.1s-0.9,0.9-1.3,1.5S102,24.2,101.9,24.9z"/>
</g>
</svg>
